<?xml version="1.0" standalone="no"?>
<!DOCTYPE svg PUBLIC "-//W3C//DTD SVG 20010904//EN"
 "http://www.w3.org/TR/2001/REC-SVG-20010904/DTD/svg10.dtd">
<svg version="1.0" xmlns="http://www.w3.org/2000/svg"
 width="200.000000pt" height="200.000000pt" viewBox="0 0 200.000000 200.000000"
 preserveAspectRatio="xMidYMid meet">

<g transform="translate(0.000000,200.000000) scale(0.100000,-0.100000)"
fill="#000000" stroke="none">
<path d="M670 1160 c0 -5 5 -10 10 -10 6 0 10 5 10 10 0 6 -4 10 -10 10 -5 0
-10 -4 -10 -10z"/>
<path d="M663 1130 c-30 -12 -29 -15 7 -16 19 -1 30 4 30 12 0 16 -6 16 -37 4z"/>
<path d="M770 1082 c0 -29 4 -52 9 -52 8 0 3 90 -5 99 -2 2 -4 -19 -4 -47z"/>
<path d="M1155 1120 c-3 -5 -1 -10 4 -10 6 0 11 5 11 10 0 6 -2 10 -4 10 -3 0
-8 -4 -11 -10z"/>
<path d="M1100 1076 c0 -41 2 -46 23 -46 20 1 20 2 5 11 -21 12 -24 35 -6 41
9 3 8 9 -5 22 -16 17 -17 15 -17 -28z"/>
<path d="M615 1101 c-3 -6 -12 -8 -18 -4 -7 3 -3 -4 8 -17 17 -19 72 -50 90
-50 3 0 5 7 5 15 0 11 -7 14 -23 10 -26 -7 -78 29 -55 38 7 2 10 7 7 11 -4 4
-10 2 -14 -3z"/>
<path d="M650 1085 c0 -9 5 -15 11 -13 6 2 11 8 11 13 0 5 -5 11 -11 13 -6 2
-11 -4 -11 -13z"/>
<path d="M810 1085 c-10 -12 -11 -21 -3 -33 11 -19 53 -29 53 -13 0 6 -6 8
-14 5 -8 -3 -17 -1 -21 5 -3 7 3 11 15 11 15 0 20 5 18 17 -4 24 -32 28 -48 8z
m35 -5 c3 -5 -1 -10 -10 -10 -9 0 -13 5 -10 10 3 6 8 10 10 10 2 0 7 -4 10
-10z"/>
<path d="M880 1087 c0 -25 19 -59 30 -52 12 8 30 65 20 65 -5 0 -12 -10 -16
-22 l-6 -21 -14 24 c-11 19 -13 21 -14 6z"/>
<path d="M965 1086 c18 -14 18 -15 3 -16 -11 0 -18 -8 -18 -20 0 -15 7 -20 26
-20 23 0 25 3 22 33 -2 26 -8 33 -28 35 -24 3 -25 3 -5 -12z m25 -30 c0 -11
-19 -15 -25 -6 -3 5 1 10 9 10 9 0 16 -2 16 -4z"/>
<path d="M1020 1065 c0 -19 5 -35 10 -35 6 0 10 11 10 25 0 14 5 25 10 25 6 0
10 -11 10 -25 0 -14 5 -25 10 -25 14 0 13 43 -2 58 -7 7 -20 12 -30 12 -14 0
-18 -8 -18 -35z"/>
<path d="M1150 1065 c0 -19 5 -35 10 -35 6 0 10 16 10 35 0 19 -4 35 -10 35
-5 0 -10 -16 -10 -35z"/>
<path d="M1194 1086 c-10 -26 1 -51 24 -54 12 -2 22 2 22 8 0 6 -4 9 -9 5 -5
-3 -12 -1 -16 5 -3 5 3 10 14 10 24 0 27 10 9 28 -16 16 -37 15 -44 -2z"/>
<path d="M1271 1063 c2 -30 3 -32 6 -10 5 34 23 36 23 2 0 -14 5 -25 11 -25 6
0 9 14 7 33 -2 24 -8 33 -25 35 -21 3 -23 -1 -22 -35z"/>
<path d="M710 1029 c0 -5 5 -7 10 -4 6 3 10 8 10 11 0 2 -4 4 -10 4 -5 0 -10
-5 -10 -11z"/>
</g>
</svg>
